<svg width="30" xmlns="http://www.w3.org/2000/svg" height="30" id="screenshot-96ddd65c-b256-802f-8006-4676cb167554" viewBox="0 0 30 30" xmlns:xlink="http://www.w3.org/1999/xlink" fill="none" version="1.1"><g id="shape-96ddd65c-b256-802f-8006-4676cb167554" width="24" height="24" rx="0" ry="0" style="fill: rgb(0, 0, 0);"><g id="shape-96ddd65c-b256-802f-8006-4676cb167555" style="display: none;"><g class="fills" id="fills-96ddd65c-b256-802f-8006-4676cb167555"><rect width="30" height="30" x="0" transform="matrix(1.000000, 0.000000, 0.000000, 1.000000, 0.000000, 0.000000)" style="fill: none;" ry="0" fill="none" rx="0" y="0"/></g></g><g id="shape-96ddd65c-b256-802f-8006-4676cb167556"><g class="fills" id="fills-96ddd65c-b256-802f-8006-4676cb167556"><path d="M25.313,5.625L20.625,5.625L20.625,4.688C20.625,3.134,19.366,1.875,17.813,1.875L12.188,1.875C10.634,1.875,9.375,3.134,9.375,4.688L9.375,5.625L4.688,5.625C4.170,5.625,3.750,6.045,3.750,6.563C3.750,7.080,4.170,7.500,4.688,7.500L5.625,7.500L5.625,24.375C5.625,25.411,6.464,26.250,7.500,26.250L22.500,26.250C23.536,26.250,24.375,25.411,24.375,24.375L24.375,7.500L25.313,7.500C25.830,7.500,26.250,7.080,26.250,6.563C26.250,6.045,25.830,5.625,25.313,5.625ZZM11.250,4.688C11.250,4.170,11.670,3.750,12.188,3.750L17.813,3.750C18.330,3.750,18.750,4.170,18.750,4.688L18.750,5.625L11.250,5.625ZM22.500,24.375L7.500,24.375L7.500,7.500L22.500,7.500ZM13.125,12.188L13.125,19.688C13.125,20.205,12.705,20.625,12.188,20.625C11.670,20.625,11.250,20.205,11.250,19.688L11.250,12.188C11.250,11.670,11.670,11.250,12.188,11.250C12.705,11.250,13.125,11.670,13.125,12.188ZZM18.750,12.188L18.750,19.688C18.750,20.205,18.330,20.625,17.813,20.625C17.295,20.625,16.875,20.205,16.875,19.688L16.875,12.188C16.875,11.670,17.295,11.250,17.813,11.250C18.330,11.250,18.750,11.670,18.750,12.188ZZ" style="fill: rgb(0, 0, 0); fill-opacity: 1;"/></g></g></g></svg>